<?xml version="1.0" encoding="utf-8"?>
<!-- Generator: Adobe Illustrator 22.1.0, SVG Export Plug-In . SVG Version: 6.00 Build 0)  -->
<svg version="1.1" id="Слой_1" xmlns="http://www.w3.org/2000/svg" xmlns:xlink="http://www.w3.org/1999/xlink" x="0px" y="0px"
	 viewBox="0 0 150 80" style="enable-background:new 0 0 150 80;" xml:space="preserve">
<style type="text/css">
	.st0{font-family:'Orbitron-Bold';}
	.st1{font-size:12px;}
</style>
<g>
	<g>
		<g>
			<path d="M60.7,12.5c-10,0-18.1,8.1-18.1,18c0,9.9,8.1,18,18.1,18s18.1-8.1,18.1-18S70.7,12.5,60.7,12.5z M60.7,46.3
				C52,46.3,45,39.2,45,30.6c0-8.7,7.1-15.7,15.8-15.7c8.7,0,15.8,7.1,15.8,15.7C76.5,39.2,69.4,46.3,60.7,46.3z"/>
		</g>
	</g>
	<g>
		<g>
			<path d="M83.8,16c0.6,0,1.2-0.5,1.2-1.2v-4.5C85,7.4,82.6,5,79.7,5H17.3C14.4,5,12,7.4,12,10.3v40.3c0,2.9,2.4,5.3,5.3,5.3h62.3
				c2.9,0,5.3-2.4,5.3-5.3V18.5c0-0.6-0.5-1.2-1.2-1.2c-0.6,0-1.2,0.5-1.2,1.2v32.1c0,1.7-1.4,3-3,3H17.3c-1.7,0-3-1.4-3-3V10.3
				c0-1.7,1.4-3,3-3h62.3c1.7,0,3,1.4,3,3v4.5C82.7,15.4,83.2,16,83.8,16z"/>
		</g>
	</g>
	<g>
		<g>
			<path d="M56.4,28.7c0.1,0,0.2,0.1,0.2,0.1C56.5,28.7,56.5,28.7,56.4,28.7z"/>
		</g>
	</g>
	<g>
		<g>
			<path d="M59.5,31.1l-1.1,4.4c0.7,0.2,2.3,0.6,3.7,0.6c1.2,0,2.2-0.3,2.5-1.5C65.2,32.1,60.9,31.5,59.5,31.1z"/>
		</g>
	</g>
	<g>
		<g>
			<path d="M69.9,23.7c-0.6-0.5-1.3-1-2.1-1.4l0.3-1.3c0.3-1.2-0.4-2.5-1.6-2.8l-2-0.5c-0.2-0.1-0.4-0.1-0.6-0.1c-0.1,0-0.2,0-0.2,0
				c-0.2-0.1-0.4-0.2-0.7-0.3l-2-0.5c-0.2-0.1-0.4-0.1-0.6-0.1c-0.4,0-0.8,0.1-1.2,0.3c-0.5,0.3-0.9,0.8-1.1,1.4l-0.3,1.1L56,19
				c-0.2,0-0.4-0.1-0.6-0.1c-1,0-2,0.7-2.2,1.7l-0.5,2.1c-0.3,1.2,0.4,2.5,1.6,2.8l0.4,0.1l-0.6,2.4c0,0,0,0,0,0l-0.9,3.6
				c-0.2,0-0.4-0.1-0.5-0.1c-0.9,0-1.7,0.5-2.1,1.4l-1,2.3c-0.3,0.6-0.3,1.3,0,1.9c0.3,0.6,0.8,1,1.5,1.2L53,39l-0.3,1.2
				c-0.3,1.2,0.4,2.5,1.6,2.8l2,0.5c0.2,0.1,0.4,0.1,0.6,0.1c0.1,0,0.2,0,0.3,0c0.2,0.1,0.4,0.2,0.6,0.3l2,0.6
				c0.2,0.1,0.5,0.1,0.7,0.1c0.4,0,0.8-0.1,1.1-0.3c0.6-0.3,1-0.8,1.1-1.4l0.3-1.4c0.3,0,0.6,0,0.9,0c4.2,0,6-2.5,6.7-4.6
				c0.7-2,0.6-3.9-0.3-5.4c0.6-0.8,1-1.8,1.2-2.9C71.8,26.7,71.2,25,69.9,23.7z M69.2,28.3c-0.2,1.8-1.2,2.7-2.6,3
				c1.8,0.9,2.7,2.4,1.8,4.9c-0.8,2.3-2.4,3-4.5,3c-0.8,0-1.7-0.1-2.6-0.3l-0.8,3.4l-2-0.6l0.8-3.3c-0.5-0.2-1.1-0.3-1.6-0.4
				l-0.8,3.3l-2-0.5l0.8-3.4c-0.5-0.2-0.9-0.2-1.5-0.4l-2.6-0.7l1-2.3l1.5,0.4c0.1,0,0.2,0,0.2,0c0.4,0,0.6-0.3,0.7-0.5l1.3-5.3
				l0.9-3.7c0-0.5-0.2-1-0.9-1.1l-1.5-0.4l0.5-2.1l2.7,0.7c0.4,0.1,0.8,0.2,1.3,0.3l0.8-3.3l2,0.5l-0.8,3.2c0.5,0.2,1.1,0.2,1.6,0.4
				l0.8-3.2l2,0.5L65,23.7C67.7,24.5,69.6,25.8,69.2,28.3z"/>
		</g>
	</g>
	<g>
		<g>
			<path d="M61,25.1l-1,4c0.6,0.2,1.9,0.6,3,0.6c1,0,1.9-0.3,2.2-1.4C65.8,25.9,62.2,25.4,61,25.1z"/>
		</g>
	</g>
	<g>
		<g>
			<path d="M36.8,14.1H20.6c-0.6,0-1.2,0.5-1.2,1.2s0.5,1.2,1.2,1.2h16.1c0.6,0,1.2-0.5,1.2-1.2C37.9,14.6,37.4,14.1,36.8,14.1z"/>
		</g>
	</g>
	<g>
		<g>
			<path d="M36.8,19.1H20.6c-0.6,0-1.2,0.5-1.2,1.2c0,0.6,0.5,1.2,1.2,1.2h16.1c0.6,0,1.2-0.5,1.2-1.2S37.4,19.1,36.8,19.1z"/>
		</g>
	</g>
	<text transform="matrix(1 0 0 1 11.375 66.875)" class="st0 st1">Junior quotes</text>
</g>
</svg>
